<svg width="24" height="24" viewBox="0 0 24 24" fill="none" xmlns="http://www.w3.org/2000/svg"><path d="M22 3.9257L12 1L2 3.9257V8.47178C2 13.3084 4.41993 17.8381 8.47896 20.6022L12 23L15.521 20.6022C19.5801 17.8381 22 13.3063 22 8.47178V3.9257ZM10.3902 18.6135C9.83546 16.0949 8.01005 14.0531 5.62152 13.1918C8.01214 12.3304 9.83546 10.2886 10.3902 7.77002C10.9449 10.2886 12.7704 12.3304 15.1589 13.1918C12.7683 14.0531 10.9449 16.0949 10.3902 18.6135ZM15.3578 10.5382C15.0605 9.18785 14.0808 8.09328 12.7997 7.63089C14.0808 7.16851 15.0605 6.07393 15.3578 4.72361C15.655 6.07393 16.6347 7.16851 17.9158 7.63089C16.6347 8.09328 15.655 9.18785 15.3578 10.5382Z" fill="white"/></svg>