<svg width="24" height="24" viewBox="0 0 24 24" fill="none" xmlns="http://www.w3.org/2000/svg"><path d="M19.9664 16.2016C19.4041 15.0065 18.6091 13.8889 17.4823 13.3523C22.0348 9.54517 22.8686 6.37437 22.1123 3.0284C21.996 1.83103 20.3456 -1.49942 19.389 0.777794C17.7818 4.60271 15.8923 8.01076 13.1948 11.268C12.4967 10.4232 11.8504 9.56956 11.2514 8.70258C10.1095 7.04844 9.1314 5.33887 8.25236 3.54504C6.48997 3.68695 5.13262 4.21246 4.02951 5.03287C3.32068 5.5606 2.71741 6.20807 2.17878 6.95753C1.36869 7.82673 -0.0619092 11.1261 2.28436 10.5496C4.36346 10.0396 6.90148 9.14161 9.16587 9.30569C7.69434 9.94872 6.37578 10.8756 6.42964 10.9399C7.09107 11.7182 7.90764 12.5208 8.90302 13.3523C7.77621 13.8889 6.98119 15.0065 6.41887 16.2016C4.60046 15.4633 3.381 15.3635 3.381 15.3635C5.09384 19.4389 7.98304 23 13.1905 23C18.398 23 21.2872 19.4389 23 15.3635C23 15.3635 21.7805 15.4633 19.9621 16.2016H19.9664Z" fill="white"/></svg>