<svg width="24" height="24" viewBox="0 0 24 24" fill="none" xmlns="http://www.w3.org/2000/svg"><path d="M8.52595 18.2521C8.05787 11.5206 9.27031 6.12828 12.0011 0H12.0034C14.6612 6.13053 15.9239 11.5094 15.4603 18.2521H8.52595Z" fill="white"/><path d="M1.68746 17.1965C0.0343504 12.943 -0.303578 9.08101 0.239848 4.49437C2.93186 8.25731 4.57356 11.7727 5.22202 16.2941C4.05296 16.5934 2.87021 16.895 1.68746 17.1965Z" fill="white"/><path d="M1.74683 18.8169L5.96866 17.7389L6.5372 19.904L2.31537 20.982L1.74683 18.8169Z" fill="white"/><path d="M18.0336 17.7389L22.2532 18.8169L21.6846 20.982L17.4628 19.904L18.0336 17.7389Z" fill="white"/><path d="M22.3125 17.1965C23.9657 12.943 24.3036 9.08101 23.7602 4.49437C21.0681 8.25731 19.4264 11.7749 18.778 16.2941C19.947 16.5934 21.1298 16.895 22.3125 17.1965Z" fill="white"/><path d="M15.8006 20.9235H8.18346V24H15.8006V20.9235Z" fill="white"/></svg>