<svg width="24" height="24" viewBox="0 0 24 24" fill="none" xmlns="http://www.w3.org/2000/svg"><g clip-path="url(#clip0_3078_33)"><path d="M22.3402 3.69201C22.8681 5.80967 23.3959 7.92734 23.9191 10.045L23.9122 10.0473C24.1275 10.9249 23.9261 11.7711 23.5348 12.5452C22.8489 13.8967 20.4829 18.291 19.0524 20.948L19.0134 21.0204L20.4974 24H6.00257L6.57208 20.8314C6.65311 20.3835 6.85684 19.9762 7.15086 19.6386C7.36848 19.3888 7.63471 19.1773 7.94262 19.0243L9.31779 18.3424C9.39187 18.3041 9.46133 18.2614 9.52615 18.2141C9.66506 18.1128 9.78081 17.9868 9.87341 17.8473C9.93129 17.7595 9.97296 17.6673 10.01 17.5705C7.9704 17.0911 6.33826 15.4461 6.03035 13.3036C5.62752 10.5041 7.63703 7.91609 10.517 7.52451C13.397 7.13293 16.0594 9.08632 16.4622 11.8859C16.6474 13.1574 16.3279 14.3839 15.6612 15.3808C17.2853 13.7887 18.7657 11.7552 19.2916 11.0328L19.3144 11.0014C19.407 10.8754 19.4417 10.6661 19.4163 10.5108L19.3951 10.3838C19.2257 9.36777 18.8986 7.40572 18.6013 5.60488C18.5018 5.59588 18.4022 5.58013 18.305 5.55762C16.7909 5.1908 16.2353 4.10609 17.0664 3.23517C16.8233 2.8706 16.2122 1.42581 17.2424 0.815942C18.8444 -0.133744 21.0762 -0.345286 21.6087 0.669664C21.8255 1.0837 21.9856 1.91884 22.1321 2.68327C22.203 3.05314 22.2708 3.40645 22.3402 3.68751V3.69201Z" fill="white"/><path d="M3.18278 4.99729C4.90752 4.76324 6.5142 5.72868 7.1277 7.23423H7.12539C6.61375 7.6078 6.15305 8.05114 5.75717 8.56199C4.65055 9.98877 4.18058 11.7486 4.43524 13.5175C4.59962 14.6472 5.04412 15.6846 5.70392 16.5578H0.0180355L0.305108 14.9825L0.420863 14.3321C0.476425 14.0193 0.619961 13.7335 0.826005 13.4972C0.978802 13.3239 1.16632 13.1754 1.38163 13.0674L1.55063 12.9841L2.34471 12.588C2.39564 12.561 2.44426 12.5318 2.49056 12.498C2.5878 12.426 2.66882 12.3382 2.73365 12.2392C2.773 12.1785 2.8031 12.1132 2.82857 12.0457C1.39783 11.7104 0.251861 10.5559 0.0365563 9.05259C-0.248201 7.08795 1.16169 5.27409 3.18278 4.99729Z" fill="white"/></g><defs><clipPath id="clip0_3078_33"><rect width="24" height="24" fill="white"/></clipPath></defs></svg>