<svg width="24" height="24" viewBox="0 0 24 24" fill="none" xmlns="http://www.w3.org/2000/svg"><path d="M15.0308 10.5028C18.6644 9.31597 20.7619 6.14207 21.1088 2.76967C21.2368 1.51954 19.9671 0.62206 18.8564 1.15843C15.3446 2.84991 13.567 6.22443 14.5105 10.205C14.5662 10.4415 14.8057 10.5788 15.0308 10.5049V10.5028Z" fill="white"/><path d="M22.3186 10.5365L19.9836 14.439C19.8783 14.6164 19.6512 14.6713 19.4778 14.5636L17.692 13.4444C17.5103 13.3303 17.2749 13.3979 17.1758 13.5901L15.6542 16.5465C15.5304 16.7893 15.2 16.8168 15.0369 16.5992L12.2932 12.9418C12.1466 12.7454 11.8575 12.7454 11.711 12.9418L8.96718 16.5992C8.80408 16.8168 8.47582 16.7872 8.34988 16.5465L6.82831 13.5901C6.72922 13.3979 6.49179 13.3303 6.31218 13.4444L4.52635 14.5636C4.35292 14.6713 4.12789 14.6164 4.02053 14.439L1.6814 10.5365C1.48527 10.2092 0.991844 10.3591 1.0001 10.7414C1.10127 15.0471 2.11496 18.2527 2.55264 19.4522C2.64348 19.7013 2.95316 19.7774 3.14517 19.5979L5.3212 17.5495C5.49875 17.3827 5.78159 17.4334 5.89514 17.6488L8.57492 22.8013C8.70292 23.0484 9.04357 23.0695 9.20048 22.8394L11.6986 19.1819C11.8452 18.9686 12.1548 18.9686 12.3014 19.1819L14.7995 22.8394C14.9564 23.0695 15.2971 23.0484 15.4251 22.8013L18.1049 17.6488C18.2184 17.4313 18.5013 17.3827 18.6788 17.5495L20.8548 19.5979C21.0468 19.7795 21.3565 19.7035 21.4474 19.4522C21.8871 18.2548 22.8987 15.0471 22.9999 10.7414C23.0082 10.357 22.5147 10.2092 22.3186 10.5365Z" fill="white"/><path d="M2.89123 2.76967C3.24013 6.14207 5.33565 9.31597 8.96925 10.5028L8.97131 10.5049C9.19635 10.5788 9.43583 10.4415 9.49158 10.205C10.4351 6.22443 8.6575 2.84991 5.14571 1.15843C4.03292 0.62206 2.76322 1.51954 2.89123 2.76967Z" fill="white"/></svg>