<svg width="24" height="25" viewBox="0 0 24 25" fill="none" xmlns="http://www.w3.org/2000/svg"><path d="M18.0215 4.94221C13.7715 2.08422 8.26816 2.46734 4.47727 5.51996C5.02325 5.65927 5.55477 5.89078 6.04698 6.22267C7.01074 6.87007 7.68702 8.18946 8.01585 9.20768C9.1616 7.8084 11.3497 6.07516 14.3195 5.73917C14.8469 5.66542 14.9276 6.00141 14.4829 6.20833C12.3362 7.08314 10.3777 8.76925 9.12024 10.6049C10.0633 10.7033 10.9981 10.9573 11.8895 11.365L7.07278 18.3963C6.81013 18.7794 6.41098 19.0396 5.95185 19.1277C5.49272 19.2137 5.02532 19.1195 4.63858 18.8593C4.25184 18.5991 3.98919 18.2037 3.90026 17.7489C3.81133 17.2941 3.90853 16.831 4.17118 16.4479C4.61583 15.7985 4.44418 14.9155 3.79064 14.477C3.13504 14.0366 2.24368 14.2046 1.79903 14.854C1.1062 15.8661 0.85182 17.083 1.08345 18.2836C1.31508 19.4841 2.00584 20.5229 3.02543 21.2092C3.79892 21.7296 4.69442 22 5.61061 22C5.90221 22 6.19589 21.9734 6.48956 21.9181C7.70149 21.6886 8.75004 21.0043 9.44287 19.9922L14.2596 12.963C14.971 13.633 15.5521 14.3992 15.9947 15.231C17.2522 13.3953 18.1104 10.9716 18.1394 8.67091C18.1683 8.18536 18.5117 8.13414 18.6399 8.64838C19.4216 11.5064 18.6026 14.1636 17.7134 15.7329C18.7909 15.6612 20.2778 15.7964 21.2416 16.4438C21.7338 16.7757 22.1495 17.1793 22.4804 17.63C23.9447 13.0142 22.2695 7.80635 18.0194 4.94836L18.0215 4.94221Z" fill="white"/></svg>