<svg width="24" height="24" viewBox="0 0 24 24" fill="none" xmlns="http://www.w3.org/2000/svg"><path d="M20.806 9.18701L23 7.86562L20.9327 4.13214L11.8991 9.57223V14.551L17.047 11.449C17.2467 13.4647 16.3257 15.5118 14.5375 16.5868C14.3829 16.6808 14.2262 16.7637 14.0652 16.8376C12.717 17.4647 11.2143 17.4289 9.93267 16.8331C8.98595 16.3942 8.15945 15.6529 7.60129 14.6473C6.2016 12.1187 7.03454 8.87122 9.46038 7.41097C9.61495 7.31691 9.77381 7.23404 9.93267 7.16013C11.2808 6.53303 12.7836 6.56887 14.0652 7.16237V0H9.93267V2.63606C9.06323 2.84434 8.20667 3.18925 7.39305 3.67749C6.57943 4.16797 5.86671 4.7682 5.25917 5.44905L3.07162 4.1299L1.00429 7.86786L3.19828 9.18925C2.67018 10.9922 2.64657 12.9518 3.19399 14.8152L1 16.1366L3.06733 19.8701L5.26132 18.5487C6.53435 19.9754 8.17233 20.9339 9.93267 21.3572V24H14.0652V21.3639C14.9346 21.1557 15.7912 20.8107 16.6048 20.3225C17.4184 19.832 18.1311 19.2318 18.7387 18.551L20.9284 19.8701L22.9957 16.1366L20.8017 14.8152C21.3298 13.0123 21.3534 11.0526 20.806 9.18925V9.18701Z" fill="white"/></svg>