<svg width="24" height="24" viewBox="0 0 24 24" fill="none" xmlns="http://www.w3.org/2000/svg"><path d="M17.3067 6.44762L21.7916 1H13.2352C6.47692 1 1 6.55238 1 13.4038V23H5.48487H7.55163V13.76L10.2384 10.9733C10.1971 10.8476 10.1764 10.7219 10.1764 10.5752C10.1764 9.8419 10.7551 9.25524 11.4785 9.25524C12.2018 9.25524 12.7805 9.8419 12.7805 10.5752C12.7805 11.3086 12.2018 11.8952 11.4785 11.8952C11.3545 11.8952 11.2305 11.8743 11.1271 11.8533L8.79169 14.2629V23H10.8584V18.0133C10.4451 17.7829 10.1764 17.3429 10.1764 16.84C10.1764 16.1067 10.7551 15.52 11.4785 15.52C12.2018 15.52 12.7805 16.1067 12.7805 16.84C12.7805 17.3429 12.5119 17.7829 12.0985 18.0133V23H14.1446H14.1653V14.2419L19.9522 16.4629L22.9903 13.1314C23.1763 12.7752 20.6549 8.41714 17.3067 6.44762ZM14.1653 5.48381C9.37038 5.48381 5.48487 9.52762 5.48487 14.5143V20.9467H3.02543V13.4038C3.02543 7.70476 7.61364 3.05333 13.2352 3.05333H17.4721L15.3433 5.63048C14.9506 5.54667 14.558 5.48381 14.1653 5.48381Z" fill="white"/></svg>