<svg width="24" height="24" viewBox="0 0 24 24" fill="none" xmlns="http://www.w3.org/2000/svg"><path d="M17.0443 2C18.6359 2 20.1323 2.60827 21.2568 3.71127H21.2588C22.869 5.29075 23.3609 7.55352 22.7408 9.55473C22.5569 10.1468 22.2737 10.7125 21.8975 11.2336C21.6577 10.0393 21.0666 8.91807 20.1551 8.02391C18.9501 6.84387 17.3503 6.19302 15.6471 6.19302C15.0126 6.19302 14.3842 6.28426 13.7807 6.46471C13.1461 6.6553 12.5446 6.94525 11.999 7.31832C11.4533 6.94322 10.8518 6.6553 10.2173 6.46471C9.61373 6.28426 8.98538 6.19302 8.35083 6.19302C6.64975 6.19302 5.04788 6.84387 3.84492 8.02391C2.93547 8.91807 2.34226 10.0393 2.1025 11.2336C1.72425 10.7125 1.44315 10.1448 1.25919 9.55473C0.639113 7.55352 1.13104 5.29075 2.74118 3.71127C3.86559 2.60827 5.36205 2 6.95359 2C7.553 2 8.14001 2.08719 8.70014 2.25547C9.622 2.53122 10.4653 3.02595 11.166 3.7133L11.999 4.53041L12.8319 3.7133C13.5326 3.02595 14.3759 2.53122 15.2978 2.25547C15.8559 2.08719 16.4429 2 17.0443 2Z" fill="white"/><path fill-rule="evenodd" clip-rule="evenodd" d="M15.6471 8.22062C16.7963 8.22062 17.8773 8.66061 18.6917 9.45744L18.6979 9.45542C19.8616 10.5969 20.2171 12.2352 19.7686 13.6809C19.5701 14.3216 19.2146 14.9258 18.6979 15.4327L12.0031 22L5.31038 15.4347C4.79365 14.9278 4.43814 14.3236 4.23971 13.6829C3.79119 12.2352 4.1467 10.599 5.31038 9.45744C6.12269 8.66061 7.20369 8.22062 8.35497 8.22062C8.78903 8.22062 9.21275 8.28348 9.61787 8.40513C10.2834 8.60586 10.8932 8.96272 11.3996 9.45947L12.001 10.0495L12.6025 9.45947C13.1089 8.96272 13.7187 8.60384 14.3842 8.40513C14.7873 8.28348 15.213 8.22062 15.6471 8.22062ZM11.9969 17.7786L15.8187 14.0296C16.2982 13.5592 16.6206 12.1825 15.3226 11.6229C14.0246 11.0633 11.9969 13.249 11.9969 13.249C11.9969 13.249 9.96924 11.0633 8.67121 11.6229C7.37318 12.1825 7.69562 13.5592 8.17515 14.0296L11.9969 17.7786Z" fill="white"/></svg>