<svg width="24" height="24" viewBox="0 0 24 24" fill="none" xmlns="http://www.w3.org/2000/svg"><path d="M22.9853 6H16.947C16.3856 6 15.9324 6.4738 15.9324 7.06074C15.9324 7.64769 16.3856 8.82865 16.947 8.82865H18.6607L18.4081 11.3721H16.7283L14.5637 9.29302H9.4363L7.2717 11.3721H5.59188L5.33935 8.82865H7.05299C7.61443 8.82865 8.06764 7.64769 8.06764 7.06074C8.06764 6.4738 7.61218 6 7.05299 6H1.01466C0.453213 6 0 6.4738 0 7.06074C0 7.64769 0.453213 8.82865 1.01466 8.82865H2.61105L3.1274 15.3793H7.95941L9.35738 17.5621C10.0271 18.4767 10.9899 19 12 19C13.0101 19 13.9729 18.4767 14.6426 17.5621L16.0406 15.3793H20.8726L21.389 8.82865H22.9853C23.5468 8.82865 24 7.64769 24 7.06074C24 6.4738 23.5468 6 22.9853 6ZM12.0135 16.1266C11.0485 16.1266 10.2683 15.3086 10.2683 14.3021C10.2683 13.2956 11.0507 12.4776 12.0135 12.4776C12.9763 12.4776 13.7587 13.2956 13.7587 14.3021C13.7587 15.3086 12.9763 16.1266 12.0135 16.1266Z" fill="white"/></svg>