<svg width="24" height="24" viewBox="0 0 24 24" fill="none" xmlns="http://www.w3.org/2000/svg"><path d="M12.533 8.74974C12.533 8.74974 13.3073 7.97415 14.2649 6.91313C14.2762 6.90072 14.2875 6.8878 14.2989 6.87487C14.3102 6.86194 14.3215 6.84902 14.3329 6.83661C16.0318 4.95243 18.1283 2.39607 16.7053 1.32678C16.419 1.11169 16.1451 1.01861 15.8856 1.01861C14.1022 1.01861 12.9778 5.44881 12.9778 5.44881C12.9798 5.44881 12.7677 1 11.0234 1C10.9308 1 10.834 1.01241 10.733 1.0393C8.99493 1.49224 10.9658 5.26887 10.9658 5.26887C10.9658 5.26887 9.77132 3.75698 8.96198 3.75698C8.7684 3.75698 8.59747 3.84385 8.46978 4.05481C8.26179 4.40228 9.42946 5.70941 10.5642 6.85729C11.5609 7.86453 12.535 8.74767 12.535 8.74767L12.533 8.74974Z" fill="white"/><path fill-rule="evenodd" clip-rule="evenodd" d="M14.1763 16.3733L12.5 17.9142L10.8237 16.3733C10.0926 15.7011 8.95374 15.7073 8.2309 16.3899L5.48368 18.9793C6.90465 21.3847 9.51389 23 12.5 23C15.4861 23 18.0974 21.3868 19.5163 18.9793L16.7691 16.3899C16.0463 15.7094 14.9074 15.7011 14.1763 16.3733ZM11.1593 20.2844C10.8525 19.9886 10.3603 19.6474 9.71365 19.6474C9.06701 19.6474 8.57481 19.9886 8.26797 20.2844C8.03114 20.514 7.94876 20.2927 7.94876 20.0962C7.94876 18.9173 8.85489 18.1107 9.71159 18.1107C10.5683 18.1107 11.4744 18.9193 11.4744 20.0962C11.4744 20.2927 11.3921 20.5119 11.1552 20.2844H11.1593ZM16.73 20.2844C16.4231 19.9886 15.9309 19.6474 15.2843 19.6474C14.6376 19.6474 14.1455 19.9886 13.8386 20.2844C13.6018 20.514 13.5194 20.2927 13.5194 20.0962C13.5194 18.9173 14.4255 18.1107 15.2822 18.1107C16.1389 18.1107 17.0451 18.9193 17.0451 20.0962C17.0451 20.2927 16.9627 20.5119 16.7259 20.2844H16.73Z" fill="white"/><path fill-rule="evenodd" clip-rule="evenodd" d="M21.1268 7.63287C23.3756 10.2182 20.5707 13.6494 20.5707 13.6494H20.5666C20.6202 14.03 20.6511 14.4167 20.6511 14.8118C20.6511 15.8707 20.4472 16.8821 20.0827 17.8128L17.6135 15.486C17.043 14.9504 16.316 14.6691 15.5808 14.6422C15.134 13.7466 13.8015 11.3206 12.4979 11.3206C11.1944 11.3206 9.86193 13.7466 9.41504 14.6422C8.67984 14.6691 7.95288 14.9483 7.38243 15.486L4.91323 17.8128C4.54666 16.8842 4.34484 15.8728 4.34484 14.8118C4.34484 14.4167 4.37573 14.03 4.42927 13.6494C4.41897 13.637 1.62851 10.2141 3.87324 7.63287C4.78966 6.58013 5.77817 6.21199 6.71107 6.21199C9.55302 6.21199 12.5309 10.1024 12.5309 10.1024C12.5309 10.1024 15.3893 6.21199 18.2889 6.21199C19.2218 6.21199 20.2103 6.58013 21.1268 7.63287ZM5.5434 12.4871C7.15178 12.4871 8.25561 11.8314 8.91873 10.4809C9.24617 9.81488 9.39033 9.13029 9.45417 8.67734C8.98669 8.28851 8.25561 7.78799 7.47922 7.56669C7.62338 7.81488 7.70781 8.10444 7.70781 8.41261C7.70781 9.34539 6.95408 10.1003 6.02735 10.1003C5.29833 10.1003 4.68052 9.63494 4.4478 8.98344C4.23981 9.42191 4.10595 10.1148 4.45604 11.1386C4.64345 11.6867 4.91323 12.1603 5.11505 12.4726C5.26126 12.4829 5.40542 12.4871 5.5434 12.4871ZM15.55 8.67734C15.6138 9.12822 15.758 9.81488 16.0854 10.4809C16.6744 11.6804 17.6114 12.3319 18.9397 12.4622C18.3342 12.2078 17.91 11.6081 17.91 10.9069C17.91 9.97414 18.6637 9.21922 19.5905 9.21922C20.0394 9.21922 20.4472 9.39709 20.7478 9.68665C20.6737 9.00206 20.3401 8.61529 20.1959 8.44983C19.6131 7.77972 18.9891 7.45294 18.2889 7.45294C17.251 7.45294 16.1616 8.16855 15.55 8.67734Z" fill="white"/></svg>