<svg width="24" height="24" viewBox="0 0 24 24" fill="none" xmlns="http://www.w3.org/2000/svg"><path fill-rule="evenodd" clip-rule="evenodd" d="M22.2346 11.8825V15.441H19.5032L13.8423 22H10.1577L4.49682 15.441H1.76538V11.8847H2.89179L4.14198 5.2927H7.00957L9.5904 2H14.4117L16.9925 5.2905H19.858L21.1082 11.8825H22.2346ZM13.933 8.40967L12 5.12356L10.067 8.40967L12 11.0456L13.933 8.40967ZM12 18.4239L15.8723 13.8528H15.8682L18.22 12.6733L17.3164 10.6304L11.9979 13.2971L6.67949 10.6304L5.77588 12.6733L8.12772 13.8528L12 18.4239Z" fill="white"/><path d="M1 17.6969L3.6551 21.9978H7.27776L3.56639 17.6969H1Z" fill="white"/><path d="M20.4336 17.6969L16.7222 21.9978H20.3449L23 17.6969H20.4336Z" fill="white"/></svg>