<svg width="24" height="24" viewBox="0 0 24 24" fill="none" xmlns="http://www.w3.org/2000/svg"><path fill-rule="evenodd" clip-rule="evenodd" d="M21.226 11.304V10.1147H21.2306C21.2306 9.11769 20.3948 8.30637 19.3676 8.30637C18.3405 8.30637 17.5046 9.11769 17.5046 10.1147V14.872H6.27444V10.1147C6.27444 9.11769 5.4386 8.30637 4.41146 8.30637C3.38432 8.30637 2.54849 9.11769 2.54849 10.1147V11.304H0.542039V9.71678C0.542039 6.61743 3.60752 4 7.23781 4C9.45379 4 11.3099 5.07217 12.3166 6.73901C13.3528 5.0987 15.2181 4 17.3429 4C20.5906 4 23.2325 6.56437 23.2325 9.71678V11.304H21.226ZM8.27633 12.9244H11.1186V9.71457C11.1186 7.49506 9.52211 5.94538 7.23553 5.94538C6.45891 5.94538 5.70962 6.11561 5.04916 6.41183C6.87797 6.70806 8.27633 8.25553 8.27633 10.1147V12.9244Z" fill="white"/><path d="M19.5453 14.5957C19.5453 13.4019 20.5428 12.4337 21.7726 12.4337C23.0025 12.4337 24 13.4019 24 14.5957C24 15.7895 23.0025 16.7577 21.7726 16.7577C20.5428 16.7577 19.5453 15.7895 19.5453 14.5957Z" fill="white"/><path d="M18.4361 16.7599H5.36117V21H18.4361V16.7599Z" fill="white"/><path d="M0 14.5957C0 13.4019 0.997533 12.4337 2.22737 12.4337C3.4572 12.4337 4.45473 13.4019 4.45473 14.5957C4.45473 15.7895 3.4572 16.7577 2.22737 16.7577C0.997533 16.7577 0 15.7895 0 14.5957Z" fill="white"/></svg>