<svg width="24" height="24" viewBox="0 0 24 24" fill="none" xmlns="http://www.w3.org/2000/svg"><path d="M23.6377 13.6786L20.4966 5.33245C20.0281 3.96995 18.551 3 16.7508 3C14.706 3 13.0766 4.25067 12.8712 5.90529H11.1265C10.9211 4.25067 9.29166 3 7.24685 3C5.44668 3 3.96961 3.96995 3.50111 5.33245L0.360035 13.6786C0.129243 14.2765 0 14.9247 0 15.6025C0 18.5785 2.4487 21 5.45822 21C8.0477 21 10.2194 19.2084 10.7757 16.8121H13.2243C13.7806 19.2062 15.9523 21 18.5418 21C21.5513 21 24 18.5785 24 15.6025C24 14.9247 23.8708 14.2765 23.64 13.6786H23.6377ZM5.45822 18.7178C3.71805 18.7178 2.30791 17.3233 2.30791 15.6025C2.30791 13.8817 3.71805 12.4873 5.45822 12.4873C7.19838 12.4873 8.60852 13.8817 8.60852 15.6025C8.60852 17.3233 7.19838 18.7178 5.45822 18.7178ZM12.0012 14.4682C11.2211 14.4682 10.5887 13.8429 10.5887 13.0715C10.5887 12.3001 11.2211 11.6748 12.0012 11.6748C12.7812 11.6748 13.4136 12.3001 13.4136 13.0715C13.4136 13.8429 12.7812 14.4682 12.0012 14.4682ZM18.5441 18.7178C16.8039 18.7178 15.3938 17.3233 15.3938 15.6025C15.3938 13.8817 16.8039 12.4873 18.5441 12.4873C20.2843 12.4873 21.6944 13.8817 21.6944 15.6025C21.6944 17.3233 20.2843 18.7178 18.5441 18.7178Z" fill="white"/></svg>