<svg width="24" height="24" viewBox="0 0 24 24" fill="none" xmlns="http://www.w3.org/2000/svg"><path d="M19.7863 12.6033C19.9721 12.6239 20.1556 12.6582 20.3254 12.713V12.7153C21.0618 12.9484 21.5 13.5289 21.5 14.267C21.5 15.1491 20.8576 16.1683 19.94 16.6231C19.2816 15.8164 18.4855 14.9846 17.5702 14.1687C17.6298 13.8854 17.6665 13.5906 17.6665 13.2843C17.6665 12.2674 16.056 11.7783 14.5052 11.8172C12.117 10.2426 9.29981 8.92401 6.27155 8.24757C6.74185 7.68996 7.2718 7.19863 7.84762 6.79185C7.43927 4.38774 8.11145 2.73548 9.98346 1.98819C9.98346 1.98819 9.29063 4.07237 10.3758 5.62864C10.3803 5.62636 10.3826 5.62636 10.3872 5.62636C10.6533 3.96724 11.6513 0.836412 15.3724 0C15.3724 0 14.2001 1.41916 13.6724 3.92839C14.9273 2.95944 16.9806 1.93792 20.0386 1.99048C20.0386 1.99048 16.391 5.13502 14.457 8.23158C14.8057 8.03047 15.8587 7.60998 16.7557 7.26262C18.2469 8.54466 19.3481 10.4186 19.7863 12.6033Z" fill="white"/><path fill-rule="evenodd" clip-rule="evenodd" d="M14.6773 16.8288C15.549 16.8288 16.3336 16.3832 16.8796 15.677L16.8819 15.6793C17.9051 16.6277 18.747 17.5829 19.3596 18.4696C18.8044 19.738 14.7759 24 12.0023 24C9.22869 24 4.79643 18.7713 4.32383 17.1602C3.19053 16.6711 2.5 15.1354 2.5 14.2647C2.5 13.5266 2.93818 12.9461 3.6746 12.713C3.84666 12.6582 4.02789 12.6239 4.21372 12.6033C4.42707 11.5361 4.80101 10.5443 5.29884 9.65759C7.57921 10.0918 9.75863 10.9373 11.7178 11.9977C11.6972 12.2925 11.6857 12.7107 11.6857 13.282C11.6857 15.2405 13.0255 16.8288 14.6773 16.8288ZM6.33349 14.3196C6.33349 15.1788 7.22362 15.8735 8.32021 15.8735H8.31792C9.37551 15.8735 10.2358 15.2291 10.3 14.4155C9.43287 13.8374 8.49227 13.3346 7.48974 12.9095C6.80838 13.1541 6.33349 13.6934 6.33349 14.3196Z" fill="white"/></svg>