<svg width="24" height="24" viewBox="0 0 24 24" fill="none" xmlns="http://www.w3.org/2000/svg"><path d="M22.8926 7.06586C22.0056 1.86194 13.971 1.04685 8.36424 2.90992L10.2888 4.87251C7.08942 6.69324 1 10.521 1 16.8894C1 25.1038 15.0003 24.9599 19.1713 16.919C19.1713 16.919 18.6577 16.8025 17.5768 17.5499C11.3079 21.8879 7.33077 19.8068 7.49786 16.4342C7.62575 13.8322 9.99592 12.3629 12.7931 11.8252V15.6847C12.7931 15.6847 24.2087 14.7659 22.8947 7.06797L22.8926 7.06586ZM15.9079 11.2578V8.5669C6.14259 8.84213 4.25099 16.648 4.25099 16.648C3.23609 7.77933 17.3725 2.63893 19.8149 6.34815C21.1042 8.30649 19.5674 11.3107 15.9079 11.2599V11.2578Z" fill="white"/></svg>