<svg width="24" height="25" viewBox="0 0 24 25" fill="none" xmlns="http://www.w3.org/2000/svg"><path d="M21.004 2.05776L18.7957 6.91788C19.4282 7.84823 20.0815 8.98487 20.2422 10.2412C20.3799 11.3077 20.3716 12.3412 19.831 13.2736C19.1276 7.939 15.9696 3.66267 11.9996 2C8.02755 3.66267 4.87161 7.939 4.16612 13.2736C3.61508 12.3989 3.61926 11.3077 3.75493 10.2412C3.91565 8.98281 4.56896 7.84823 5.2014 6.91788L2.99517 2.05776C1.41511 4.70029 0.674138 8.1164 1.13542 11.7202C1.81587 17.0239 4.91753 21.2899 8.84158 23L7.33458 19.6829H8.64955L11.9996 22.9938L15.3497 19.6829H16.6646L15.1576 23C19.0796 21.2919 22.1833 17.0239 22.8638 11.7202C23.3272 8.1164 22.5841 4.70236 21.004 2.05776ZM17.9399 14.3112C17.535 15.4334 16.9067 16.3968 16.1512 17.1518H14.5398L11.9975 19.6623L9.45523 17.1497H7.84387C7.08828 16.3947 6.46211 15.4313 6.05509 14.3091C5.69817 13.319 5.54997 12.3185 5.58963 11.3716C6.15945 12.1039 6.89626 12.764 7.77917 13.2901C8.445 13.6861 9.13797 13.9708 9.83303 14.1565L10.8433 15.1549L11.9954 16.2936L13.1476 15.1549L14.1578 14.1565C14.8529 13.9708 15.5479 13.6861 16.2117 13.2901C17.0946 12.764 17.8314 12.1039 18.4012 11.3716C18.4388 12.3185 18.2927 13.321 17.9358 14.3091L17.9399 14.3112Z" fill="white"/></svg>