<svg width="24" height="24" viewBox="0 0 24 24" fill="none" xmlns="http://www.w3.org/2000/svg"><path d="M15.0418 4.0876L13.0116 10.6047H10.9953L8.96517 4.0876C9.92244 3.21233 10.7687 2.19043 11.4601 1.02416C11.6589 0.688034 11.837 0.345145 12.0035 0C12.17 0.345145 12.348 0.688034 12.5468 1.02416C13.2359 2.19043 14.0822 3.21233 15.0418 4.0876Z" fill="white"/><path d="M18.7795 13.0174C18.7801 12.9982 18.7807 12.979 18.7807 12.9598H18.783C18.783 10.4716 17.3725 8.30377 15.2892 7.17584L16.0013 4.88841C17.7147 6.18101 19.7102 7.04726 21.8051 7.43752C21.1045 9.40236 20.8756 11.5229 21.1669 13.6163L18.7784 13.0749C18.7784 13.0557 18.7789 13.0365 18.7795 13.0174Z" fill="white"/><path d="M13.5827 14.9856L18.3552 19.962C19.6108 19.5898 20.9403 19.3845 22.3207 19.3845C22.7185 19.3845 23.1115 19.4048 23.5 19.4364C23.2757 19.1228 23.063 18.8025 22.8641 18.4664C22.1728 17.3001 21.6895 16.0729 21.3935 14.8254L14.5909 13.2802L13.5827 14.9834V14.9856Z" fill="white"/><path d="M5.64477 19.962C4.38921 19.5898 3.05967 19.3845 1.67925 19.3845V19.3868C1.28154 19.3868 0.888459 19.4071 0.5 19.4387C0.721976 19.1273 0.937016 18.8048 1.13587 18.4686C1.82492 17.3001 2.3105 16.0752 2.60646 14.8277L9.40912 13.2824L10.4173 14.9856L5.64477 19.962Z" fill="white"/><path d="M12.0011 19.5718C10.7225 19.5718 9.52935 19.2266 8.50964 18.6266L6.83557 20.3703C8.84029 21.1712 10.6069 22.4232 12.0011 24C13.3954 22.4254 15.162 21.1712 17.1667 20.3703L15.4927 18.6266C14.4729 19.2266 13.2775 19.5718 12.0011 19.5718Z" fill="white"/><path d="M8.71544 7.17584C6.63209 8.30377 5.22162 10.4716 5.22162 12.9598H5.22393C5.22393 12.979 5.22451 12.9982 5.22509 13.0174C5.22567 13.0365 5.22624 13.0557 5.22624 13.0749L2.83768 13.6163C3.12903 11.5229 2.90011 9.40236 2.1995 7.43752C4.2944 7.04726 6.28988 6.18101 8.00326 4.88841L8.71544 7.17584Z" fill="white"/></svg>