<svg width="24" height="24" viewBox="0 0 24 24" fill="none" xmlns="http://www.w3.org/2000/svg"><path d="M11.1656 8.05267L8.4804 2.0068H8.48209L8.47872 2H14.1256V2.0068H14.1273V2.01869L15.7016 10.2515H11.8651L13.2828 14.1869C12.8698 14.0748 12.4248 14.0136 11.9882 14.0136C11.5516 14.0136 11.1285 14.0714 10.7257 14.1784L7.62916 8.05267H11.1656Z" fill="white"/><path d="M9.73114 17.0943C10.2739 16.4469 11.0847 16.0357 11.9899 16.0357C12.8984 16.0357 13.7092 16.4486 14.252 17.0977C14.6852 17.616 14.9482 18.2855 14.9482 19.0178C14.9482 20.6644 13.6233 22 11.9899 22C10.3565 22 9.0316 20.6644 9.0316 19.0178C9.0316 18.2838 9.29456 17.6143 9.73114 17.0943Z" fill="white"/><path d="M7.40329 17.1062C7.69321 16.4027 8.13654 15.7808 8.69279 15.2812L3.58028 6.35344H8.26127L7.33418 4.18012H0L7.40329 17.1062Z" fill="white"/><path d="M16.8226 6.35344L16.4416 4.18012H24L16.5815 17.113C16.2933 16.4078 15.85 15.7842 15.2937 15.2846L20.418 6.35344H16.8226Z" fill="white"/></svg>