<svg width="24" height="24" viewBox="0 0 24 24" fill="none" xmlns="http://www.w3.org/2000/svg"><path fill-rule="evenodd" clip-rule="evenodd" d="M11.7754 14.4165C11.7754 14.8083 11.8939 15.1827 12.1128 15.5005H12.1151C11.3822 15.8335 10.5666 16.0207 9.70635 16.0207C9.19691 16.0207 8.70533 15.9554 8.2361 15.8335C5.79387 15.2001 3.99069 13.0278 3.99069 10.4529C3.99069 9.61496 4.18285 8.8205 4.52471 8.10658C4.85094 8.31989 5.23303 8.43525 5.63523 8.43525H5.63746C6.16925 8.43525 6.66977 8.23282 7.04738 7.86498C7.425 7.49931 7.6328 7.01176 7.6328 6.49155C7.6328 6.09977 7.51438 5.72539 7.29541 5.40761C8.0283 5.07459 8.84387 4.88741 9.70412 4.88741C12.2223 4.88741 14.3629 6.48502 15.1226 8.69208C15.3125 9.24711 15.4176 9.83915 15.4176 10.4551C15.4176 11.2931 15.2254 12.0876 14.8835 12.8015C14.5573 12.5882 14.1707 12.4728 13.7708 12.4728C13.239 12.4728 12.7385 12.6774 12.3609 13.0431C11.9832 13.4087 11.7754 13.8963 11.7754 14.4165ZM6.71669 12.142L7.9702 13.363L12.6893 8.76609L11.4358 7.54502L6.71669 12.142Z" fill="white"/><path fill-rule="evenodd" clip-rule="evenodd" d="M9.70412 1C14.6534 1 18.7469 4.62837 19.3323 9.29933L19.3345 9.29715C22.0829 10.4986 24 13.1867 24 16.3123C24 20.5588 20.4651 24 16.108 24C13.0736 24 10.4415 22.3327 9.12094 19.8862C4.04208 19.5924 0 15.6658 0 10.4529C0 5.23999 4.35267 1 9.70412 1ZM9.70412 3.15917C5.5682 3.15917 2.21655 6.42406 2.21655 10.4529C2.21655 14.0247 4.85318 16.9957 8.33442 17.6226C8.77907 17.7031 9.23489 17.7467 9.70412 17.7467C13.8401 17.7467 17.1917 14.4818 17.1917 10.4529C17.1917 9.83912 17.1135 9.24491 16.966 8.67465C16.1504 5.50554 13.2099 3.15917 9.70412 3.15917Z" fill="white"/></svg>